<svg id="Layer_1" data-name="Layer 1" xmlns="http://www.w3.org/2000/svg" viewBox="0 0 456.24 133.24"><defs><style>.cls-1{fill:#1d2f52;}.cls-2{fill:#fff;}</style></defs><title>Artboard 1</title><path class="cls-1" d="M119.59,21.61C119.59,9.67,109.59,0,97.27,0H23.47C11.14,0,1.15,9.67,1.15,21.61.44,35.53,0,50.07,0,65.2c0,16.15.39,31.65,1.15,46.44,0,11.93,10,21.61,22.32,21.61h73.8c12.33,0,22.32-9.67,22.32-21.61.71-13.92,1.13-28.47,1.15-43.59C120.76,51.89,120.34,36.39,119.59,21.61Z"/><path class="cls-2" d="M91.79,28l-2.46-1.36A2.88,2.88,0,0,1,88,25.14l-.91-2.45a2.88,2.88,0,0,0-2.7-1.88H36.33a2.88,2.88,0,0,0-2.7,1.88l-.91,2.45a2.88,2.88,0,0,1-1.31,1.52L28.95,28a2.88,2.88,0,0,0-1.49,2.52V32a2.88,2.88,0,0,0,2.88,2.88H90.4A2.88,2.88,0,0,0,93.28,32V30.54A2.88,2.88,0,0,0,91.79,28Z"/><path class="cls-2" d="M70.07,79.77c-.91.23-1.53.44-1.53.44l-.79.27c-.41.14-.75.24-1.09.33a39.4,39.4,0,0,1-7.84.86c-1.15,0-2.67,0-4.47-.12A2.24,2.24,0,0,1,53,80.68a2.22,2.22,0,0,1-.38-1.2c0-.11-.06-1.29.59-1.78.1-.07.3-.2.27-.27s-.14,0-.32-.07a1.37,1.37,0,0,1-.56-.29,2,2,0,0,1-.4-.42,1.31,1.31,0,0,1-.24-.4c0-.08-.06-.22-.13-.5h0a3,3,0,0,1,0-.76,2.14,2.14,0,0,1,.4-1.06,3.81,3.81,0,0,1,.27-.28c.1-.1.2-.15.18-.19s-.1,0-.18,0a1.19,1.19,0,0,1-.49-.2,1.85,1.85,0,0,1-.94-1.27,2.62,2.62,0,0,1,0-1.07,2,2,0,0,1,.27-.79,1.28,1.28,0,0,1,.36-.42c.11-.08.23-.13.22-.18s-.09-.05-.18-.07a4.11,4.11,0,0,1-.44-.18,1.78,1.78,0,0,1-.56-.41,2.23,2.23,0,0,1-.46-1.6,2.1,2.1,0,0,1,.23-1.06,1.88,1.88,0,0,1,.56-.62,1.9,1.9,0,0,1,.84-.33c4.11,0,7.1,0,7.6,0a2.23,2.23,0,0,0,1.24-.41,2.16,2.16,0,0,0,.5-1,2.06,2.06,0,0,0,0-.81,24.48,24.48,0,0,0-.58-3,15.06,15.06,0,0,1-.81-3.19,5.45,5.45,0,0,1,.16-2c.38-1.28,1.48-3,3.12-3.14a2.88,2.88,0,0,1,1.46.26,13.48,13.48,0,0,0,.92,5.11,15.31,15.31,0,0,0,2.59,4.22c3.93,4.3,10.89,4,11.87,3.94A15.71,15.71,0,0,0,84,64.46l4.38-27.32H32l11.71,72.3a39.93,39.93,0,0,0,16.51,3,43.62,43.62,0,0,0,16.59-3L81.89,77.9C78.18,78.45,71.24,79.48,70.07,79.77Z"/><path class="cls-1" d="M169.71,86.9a19.12,19.12,0,0,1-7-1.29,16.5,16.5,0,0,1-5.79-3.81A17.91,17.91,0,0,1,153,75.53a24.09,24.09,0,0,1-1.44-8.67,23.53,23.53,0,0,1,1.5-8.67,19.63,19.63,0,0,1,4-6.45,17,17,0,0,1,5.88-4A18.45,18.45,0,0,1,170,46.34a14.71,14.71,0,0,1,6.78,1.53,18.72,18.72,0,0,1,5,3.57l-4.68,5.64a15,15,0,0,0-3.15-2.25,7.93,7.93,0,0,0-3.75-.87,8.4,8.4,0,0,0-3.75.87,8.9,8.9,0,0,0-3.06,2.49,12.32,12.32,0,0,0-2,4,17.25,17.25,0,0,0-.75,5.28q0,6.06,2.58,9.39a8.28,8.28,0,0,0,6.9,3.33,8.67,8.67,0,0,0,4.29-1.05,13.24,13.24,0,0,0,3.33-2.61l4.68,5.52A15.89,15.89,0,0,1,169.71,86.9Z"/><path class="cls-1" d="M205.06,86.9a18.08,18.08,0,0,1-7.23-1.41,15.71,15.71,0,0,1-5.61-4.05A18.6,18.6,0,0,1,188.59,75a26.48,26.48,0,0,1-1.29-8.58,26.22,26.22,0,0,1,1.29-8.55,17.71,17.71,0,0,1,3.63-6.3,15.6,15.6,0,0,1,5.61-3.9,20,20,0,0,1,14.46,0,15.43,15.43,0,0,1,5.61,3.93A18,18,0,0,1,221.53,58a26,26,0,0,1,1.29,8.49A26.5,26.5,0,0,1,221.53,75a18.61,18.61,0,0,1-3.63,6.42,15.72,15.72,0,0,1-5.61,4.05A18.08,18.08,0,0,1,205.06,86.9Zm0-7.62a7.31,7.31,0,0,0,6.36-3.45q2.34-3.45,2.34-9.39t-2.34-9.18a7.78,7.78,0,0,0-12.72,0q-2.34,3.3-2.34,9.18t2.34,9.39A7.3,7.3,0,0,0,205.06,79.28Z"/><path class="cls-1" d="M232.23,86.18V47.06h24.66V54.5H241.05v9.06h13.56V71H241.05V86.18Z"/><path class="cls-1" d="M265.28,86.18V47.06h24.66V54.5H274.1v9.06h13.56V71H274.1V86.18Z"/><path class="cls-1" d="M298.33,86.18V47.06h24.48V54.5H307.15v7.86h13.32v7.38H307.15v9h16.26v7.44Z"/><path class="cls-1" d="M333.25,86.18V47.06h24.48V54.5H342.07v7.86h13.32v7.38H342.07v9h16.26v7.44Z"/><path class="cls-1" d="M368.61,86.18V46.82h11.22a28.18,28.18,0,0,1,6,.6,12.75,12.75,0,0,1,4.65,2,9.19,9.19,0,0,1,3,3.57,12.42,12.42,0,0,1,1.08,5.46,12.82,12.82,0,0,1-1,5.4,10.06,10.06,0,0,1-3,3.78A13.14,13.14,0,0,1,386,69.83a21.82,21.82,0,0,1-5.91.75h-6.48v15.6Zm5-19.68h5.88q5.16,0,7.65-2t2.49-6.15q0-4.26-2.61-5.91t-7.77-1.65h-5.64Z"/><path class="cls-1" d="M395.34,86.18l13.32-39.36h5.64l13.32,39.36h-5.34l-3.72-12H404.22l-3.78,12Zm12-22-1.86,6H417.3l-1.86-6q-1.08-3.3-2-6.57t-1.92-6.69h-.24q-.9,3.42-1.86,6.69T407.34,64.16Z"/><path class="cls-1" d="M434,86.18V46.82h5v35.1h17.22v4.26Z"/></svg>
